<svg xmlns="http://www.w3.org/2000/svg" viewBox="0 0 24 24"><path d="M12 0C5.4 0 0 5.5 0 12.3c0 5.4 3.4 10 8.2 11.7.6.1.8-.3.8-.6v-2.1c-3.3.7-4-1.6-4-1.6-.5-1.4-1.3-1.8-1.3-1.8-1.1-.8.1-.7.1-.7 1.2.1 1.8 1.3 1.8 1.3 1.1 1.9 2.8 1.3 3.5 1 .1-.8.4-1.3.8-1.6-2.7-.3-5.5-1.4-5.5-6.1 0-1.3.5-2.4 1.2-3.3-.1-.5-.6-1.7.1-3.4 0 0 1-.3 3.3 1.3 1-.3 2-.4 3-.4s2 .1 3 .4c2.3-1.6 3.3-1.3 3.3-1.3.7 1.7.2 2.9.1 3.3.8.9 1.2 2 1.2 3.3 0 4.7-2.8 5.8-5.5 6.1.4.4.8 1.1.8 2.3v3.4c0 .3.2.7.8.6 4.8-1.6 8.2-6.2 8.2-11.7C24 5.5 18.6 0 12 0z" fill-rule="evenodd" clip-rule="evenodd" fill="#191717"/></svg>