<svg xmlns="http://www.w3.org/2000/svg" viewBox="0 0 24 24"><path d="M1.2 17.8V1.2h16.3c-.2 0-.4 0-.5.1-1 .2-1.8.6-2.6 1.2-.3.3-.7.6-1 .9L10 6.8v.1c.2-.1.3-.1.5-.2.4-.1.7 0 1.1 0 .7.1 1.3.2 1.8.6v-.1l2.4-2.4c.3-.3.7-.5 1.1-.7.5-.2 1.1-.2 1.6 0 1 .3 1.7 1.3 1.5 2.6-.1.5-.3 1-.6 1.4-.2.2-.4.5-.7.7l-3.8 3.8c-.3.3-.6.5-.9.6-.5.2-1.1.3-1.7.2-.4-.1-.8-.3-1.1-.6-.3-.3-.7-.4-1.1-.4-.6.1-.9.4-1.1.9-.2.5-.1 1 .3 1.4.4.5 1 .8 1.6 1.1.9.4 1.8.5 2.7.3.7-.1 1.4-.3 2-.7.5-.3 1-.7 1.4-1.1 1.2-1.2 2.3-2.3 3.5-3.4.3-.3.7-.7 1-1.1 1-1.2 1.4-2.5 1.3-4.1-.1-.6-.2-1.2-.5-1.7-.5-1.1-1.4-1.9-2.5-2.3-.4-.2-.9-.3-1.3-.4h-.4 4.8V23H1.2v-5.2.2c0 .3 0 .7.1 1 .3 1.5 1.2 2.6 2.5 3.3 1 .5 2.2.7 3.4.5 1.1-.2 2.1-.7 2.9-1.5l4-4c-.4.2-.6.2-.8.2-.5 0-.9 0-1.4-.1-.5-.1-.9-.2-1.3-.5l-.1.1-2.3 2.3c-.3.3-.6.5-.9.7-.5.2-1 .3-1.6.2-1.1-.2-2-1.3-1.8-2.6.1-.6.4-1.1.8-1.6.5-.6 1.1-1.1 1.7-1.7L9 11.7c.2-.2.5-.4.8-.6.6-.3 1.2-.4 1.8-.3.4.1.8.3 1.1.6.3.3.7.4 1.1.4.6-.1 1-.4 1.1-.9.2-.5.1-1-.3-1.4-.2-.2-.4-.4-.7-.6-1.2-.8-2.4-1-3.8-.8-1.1.2-2.1.7-3 1.5l-4.3 4.3c-.5.5-.9 1-1.2 1.7-.3.6-.4 1.2-.5 1.8.1.1.1.3.1.4z" fill="#fff"/><path d="M1.2 17.8v-.4c.1-.6.2-1.3.5-1.8.3-.6.7-1.2 1.2-1.7l4.3-4.3C8 8.8 9 8.3 10.1 8.1c1.4-.2 2.6 0 3.8.8.3.2.5.4.7.6.4.4.5.9.3 1.4-.2.5-.6.8-1.1.9-.4.1-.8-.1-1.1-.4-.3-.3-.7-.5-1.1-.6-.6-.1-1.2 0-1.8.3-.3.1-.5.3-.8.6l-2.6 2.6L4.7 16c-.4.4-.7 1-.8 1.6-.2 1.3.7 2.4 1.8 2.6.6.1 1.1 0 1.6-.2.3-.2.6-.4.9-.7l2.3-2.3.1-.1c.4.3.8.4 1.3.5.4.1.9.2 1.4.1.3 0 .5-.1.8-.2l-4 4c-.8.8-1.8 1.3-2.9 1.5-1.2.2-2.4 0-3.4-.5-1.3-.7-2.2-1.8-2.5-3.3-.1-.3-.1-.6-.1-1v-.2c0 .1 0 0 0 0z"/><path d="M18.1 1.2h.4c.5.1.9.2 1.3.4 1.1.5 1.9 1.3 2.5 2.3.3.5.4 1.1.5 1.7.1 1.5-.3 2.9-1.3 4.1-.3.4-.7.7-1 1.1-1.2 1.1-2.3 2.3-3.5 3.4-.4.4-.9.8-1.4 1.1-.6.3-1.3.6-2 .7-.9.1-1.8 0-2.7-.3-.6-.2-1.1-.6-1.6-1.1-.4-.4-.5-.9-.3-1.4.2-.5.6-.8 1.1-.9.4-.1.8.1 1.1.4.3.3.7.5 1.1.6.6.1 1.2.1 1.7-.2l.9-.6 3.8-3.8c.2-.2.5-.4.7-.7.3-.4.6-.8.6-1.4.2-1.2-.5-2.2-1.5-2.6-.5-.2-1.1-.1-1.6 0-.4.2-.8.4-1.1.7l-2.4 2.4v.1c-.6-.4-1.2-.5-1.8-.6-.4 0-.7-.1-1.1 0-.2 0-.4.1-.5.2v-.1l3.4-3.4c.3-.3.6-.6 1-.9.8-.6 1.6-1 2.6-1.2.2 0 .4 0 .5-.1h.1c.2.1.3.1.5.1z"/></svg>